<?xml version="1.0" standalone="no"?>
<!DOCTYPE svg PUBLIC "-//W3C//DTD SVG 20010904//EN"
 "http://www.w3.org/TR/2001/REC-SVG-20010904/DTD/svg10.dtd">
<svg version="1.0" xmlns="http://www.w3.org/2000/svg"
 width="577.000000pt" height="577.000000pt" viewBox="0 0 577.000000 577.000000"
 preserveAspectRatio="xMidYMid meet">
<metadata>
Created by potrace 1.14, written by Peter Selinger 2001-2017
</metadata>
<g transform="translate(0.000000,577.000000) scale(0.100000,-0.100000)"
fill="#000000" stroke="none">
<path d="M3160 5530 c6 -11 13 -20 16 -20 2 0 0 9 -6 20 -6 11 -13 20 -16 20
-2 0 0 -9 6 -20z"/>
<path d="M3122 5533 c-6 -2 -10 -8 -8 -12 3 -4 -16 -6 -40 -4 -30 2 -43 0 -39
-7 4 -6 1 -9 -7 -8 -7 2 -16 10 -20 18 -5 12 -7 11 -7 -4 -1 -15 -7 -17 -31
-14 -16 3 -30 1 -30 -4 0 -5 -8 -8 -17 -6 -10 1 -24 -1 -32 -6 -8 -5 -16 -3
-22 5 -7 12 -9 11 -9 -1 0 -13 -1 -13 -11 0 -7 10 -12 11 -15 4 -3 -7 -14 -10
-24 -7 -11 3 -20 0 -20 -6 0 -6 -5 -11 -11 -11 -5 0 -7 6 -4 13 4 6 1 5 -7 -4
-7 -9 -23 -14 -36 -12 -13 1 -30 -4 -39 -13 -13 -13 -17 -13 -24 -2 -6 9 -9 8
-9 -7 0 -16 -2 -17 -10 -5 -8 12 -10 12 -16 -3 -3 -9 -13 -17 -21 -17 -8 0
-11 -5 -7 -12 4 -6 3 -8 -3 -5 -6 4 -16 0 -23 -8 -7 -8 -27 -15 -44 -15 -24 0
-27 -3 -16 -10 8 -5 10 -10 4 -10 -5 0 -16 6 -23 13 -11 10 -13 9 -8 -5 4 -13
2 -15 -10 -11 -9 4 -14 2 -10 -3 3 -6 2 -16 -2 -23 -6 -10 -10 -9 -14 4 -5 11
-3 14 6 9 7 -4 9 -3 4 2 -5 5 -12 9 -15 9 -4 0 -13 4 -21 9 -10 7 -12 6 -6 -4
6 -10 4 -12 -8 -7 -9 3 -19 2 -22 -4 -4 -5 -1 -8 6 -7 17 4 18 -34 2 -39 -7
-3 -13 0 -13 7 0 6 5 8 12 4 6 -4 8 -3 5 3 -8 12 -67 4 -67 -9 0 -5 5 -6 12
-2 7 4 8 3 4 -4 -5 -9 -12 -9 -26 0 -17 11 -17 13 -2 25 15 12 14 13 -6 3 -18
-9 -21 -14 -12 -25 8 -9 8 -15 0 -20 -5 -3 -10 -1 -10 4 0 6 -7 11 -15 11 -8
0 -15 5 -15 11 0 5 5 7 12 3 6 -4 3 4 -8 18 -10 14 -21 24 -23 22 -2 -2 2 -10
9 -19 15 -18 0 -20 -20 -2 -8 6 -6 2 4 -10 20 -24 19 -24 -24 -27 -8 -1 -15
-8 -15 -16 0 -8 -7 -18 -15 -22 -12 -5 -11 -7 4 -7 17 -1 16 -4 -8 -26 -15
-14 -24 -30 -21 -35 3 -6 -1 -10 -11 -10 -14 0 -15 -2 -3 -17 13 -15 12 -15
-8 -5 -16 9 -24 9 -29 0 -4 -6 -3 -8 3 -5 6 4 14 0 17 -9 4 -11 -1 -18 -14
-21 -11 -3 -17 -10 -13 -16 4 -6 0 -8 -11 -4 -9 4 -14 3 -11 -2 3 -5 1 -12 -5
-16 -5 -3 -10 -1 -10 6 0 7 -3 9 -6 6 -4 -4 -1 -15 7 -24 7 -10 10 -15 5 -11
-11 9 -35 -14 -29 -28 2 -6 -3 -14 -12 -18 -10 -4 -15 -12 -11 -22 3 -8 2 -12
-4 -9 -6 3 -10 -1 -10 -10 0 -9 -5 -13 -11 -9 -8 5 -8 1 0 -14 8 -15 7 -23 -3
-31 -7 -6 -12 -21 -11 -33 1 -13 -2 -28 -7 -35 -6 -7 -4 -14 3 -19 8 -4 9 -3
5 4 -4 7 -1 12 9 12 9 0 15 -6 12 -12 -2 -7 0 -21 5 -30 7 -14 5 -16 -9 -11
-16 6 -16 5 -4 -10 7 -9 11 -24 7 -32 -3 -9 -2 -13 3 -10 5 3 12 1 15 -4 4 -5
2 -12 -3 -16 -6 -3 -7 -15 -1 -29 6 -16 5 -27 -3 -35 -9 -9 -9 -14 2 -20 10
-7 10 -13 2 -29 -7 -14 -8 -23 -1 -27 5 -3 10 -11 10 -16 0 -6 -4 -7 -10 -4
-6 3 -7 -1 -4 -9 3 -9 11 -13 17 -9 6 4 7 1 2 -7 -10 -16 -13 -60 -5 -60 10 0
5 -50 -5 -50 -5 0 -3 -5 5 -10 10 -5 15 -22 15 -42 -1 -18 4 -36 9 -40 8 -5 7
-8 -1 -8 -7 0 -10 -7 -7 -15 9 -22 10 -235 2 -236 -59 -10 -76 -27 -68 -64 1
-5 3 -14 4 -20 1 -5 4 -14 7 -20 3 -5 5 -28 4 -50 -1 -22 2 -50 7 -62 4 -14 4
-23 -3 -23 -6 0 -6 -7 1 -20 9 -17 5 -102 -5 -120 -2 -3 -6 -30 -10 -60 -3
-30 -8 -63 -11 -72 -3 -10 -2 -18 3 -18 4 0 8 -15 9 -34 0 -19 9 -43 22 -56
12 -13 22 -27 22 -32 0 -4 7 -8 16 -8 24 0 39 -21 42 -60 2 -19 7 -37 10 -40
4 -3 8 -14 8 -25 2 -32 9 -59 17 -72 5 -7 10 -21 12 -30 2 -10 8 -31 13 -48 5
-16 8 -38 6 -47 -1 -10 1 -18 6 -18 4 0 6 -10 6 -22 -1 -13 0 -27 3 -33 10
-18 11 -46 2 -41 -5 4 -11 1 -13 -5 -2 -6 -21 -12 -43 -14 -22 -2 -61 -6 -87
-9 -55 -6 -156 -51 -253 -114 -96 -62 -130 -81 -189 -103 -28 -11 -60 -23 -71
-28 -158 -69 -416 -167 -490 -185 -5 -2 -18 -6 -27 -11 -17 -7 -18 -76 -18
-1261 l0 -1254 1905 0 1905 0 -2 1025 c-2 693 -6 1028 -13 1033 -6 4 -28 34
-50 67 -37 56 -62 89 -92 121 -7 7 -13 16 -13 20 0 13 -134 144 -147 144 -7 0
-13 5 -13 10 0 6 -6 10 -14 10 -8 0 -21 6 -28 13 -11 11 -35 24 -58 32 -3 1
-18 7 -35 14 -16 6 -43 16 -60 22 -16 6 -39 15 -50 19 -11 4 -36 13 -55 20
-40 14 -64 23 -100 38 -14 5 -41 15 -60 22 -19 7 -46 17 -60 22 -14 6 -34 14
-45 18 -11 5 -36 14 -55 21 -19 8 -37 14 -40 15 -3 0 -14 4 -25 9 -11 4 -47
18 -80 30 -33 13 -69 26 -80 30 -11 5 -23 7 -27 7 -5 -1 -8 2 -8 8 0 5 -8 10
-18 10 -10 0 -22 3 -26 8 -4 4 -12 8 -17 8 -5 1 -12 2 -15 3 -7 1 28 61 37 61
4 0 12 14 19 30 7 17 17 30 22 30 5 0 6 4 3 10 -3 5 -1 10 4 10 6 0 11 7 11
15 0 8 5 15 10 15 6 0 9 3 9 8 -3 20 2 45 8 39 6 -6 28 33 31 56 1 4 7 20 15
35 32 62 57 124 57 142 0 11 4 20 9 20 5 0 11 12 13 28 3 23 7 27 36 26 17 0
32 3 32 8 0 5 5 6 10 3 6 -3 10 -1 10 5 0 7 6 10 12 8 7 -3 25 10 39 28 15 19
30 30 34 26 4 -4 3 2 -2 13 -13 25 -11 265 2 285 5 8 10 20 11 25 1 6 5 28 8
50 4 21 12 43 19 47 9 6 9 8 -1 8 -8 0 -10 5 -5 13 10 15 16 44 17 82 1 22 -4
31 -18 33 -11 2 -25 10 -32 17 -14 14 -15 55 -1 55 5 0 4 6 -2 14 -8 9 -8 16
-2 20 5 4 10 14 10 24 0 9 3 35 5 57 3 22 7 51 9 65 2 14 7 31 11 38 4 7 2 12
-4 12 -7 0 -8 6 -2 18 5 9 7 23 5 30 -3 6 1 12 8 12 7 0 9 3 6 7 -4 3 -2 12 5
20 8 11 7 12 -6 7 -14 -6 -15 -3 -1 22 7 15 12 31 9 36 -3 4 -1 8 5 8 5 0 8
10 6 21 -2 12 0 30 5 39 7 13 6 20 -3 23 -9 4 -8 8 3 16 13 10 13 11 0 11 -13
0 -13 1 0 10 14 9 7 14 -15 11 -5 -1 -3 5 6 12 15 11 15 16 4 37 -10 18 -10
28 -2 38 7 9 7 16 1 20 -11 8 -12 22 -2 38 4 6 4 14 0 18 -8 9 -11 86 -2 81 3
-2 6 5 6 16 0 10 -4 19 -8 19 -4 0 -4 10 1 23 5 13 4 31 -2 44 -7 17 -6 27 4
40 9 11 10 14 2 9 -9 -5 -13 1 -13 19 0 14 -3 24 -7 22 -5 -3 -19 13 -33 34
-13 21 -27 39 -32 39 -4 0 -4 7 -1 17 5 12 3 14 -8 8 -11 -6 -12 -5 -1 6 16
18 15 29 -3 29 -8 0 -15 6 -15 13 0 8 -4 7 -10 -3 -8 -13 -10 -13 -10 1 0 9
-10 24 -22 35 -12 10 -18 13 -14 7 4 -8 1 -13 -9 -13 -9 0 -14 4 -11 9 4 5 2
11 -4 13 -5 1 -11 15 -12 29 -1 17 -7 25 -15 22 -8 -3 -13 3 -14 13 0 11 -3
14 -5 7 -4 -8 -11 -7 -24 5 -13 10 -16 18 -9 23 7 4 4 9 -6 12 -9 4 -13 3 -10
-3 3 -6 -1 -10 -9 -10 -8 0 -18 5 -21 10 -3 6 -15 10 -27 10 -12 0 -22 8 -25
21 -4 16 -8 17 -14 7 -7 -10 -9 -9 -9 5 0 9 -3 16 -7 15 -5 0 -19 4 -33 10
-14 6 -19 11 -12 11 6 1 12 5 12 10 0 4 -10 8 -22 7 -13 0 -22 4 -21 10 1 7
-7 20 -19 30 -12 11 -18 13 -14 7 12 -21 -13 -15 -26 6 -11 18 -13 18 -25 3
-12 -16 -12 -15 -6 2 5 16 3 18 -15 14 -15 -4 -25 0 -32 10 -7 13 -12 14 -18
5 -4 -7 -13 -9 -21 -3 -8 4 -20 6 -28 3 -8 -3 -13 -2 -12 3 4 21 -2 25 -18 13
-9 -8 -14 -9 -10 -3 4 7 0 15 -9 18 -8 3 -12 2 -9 -4 3 -6 1 -10 -4 -10 -6 0
-11 7 -11 16 0 8 -5 12 -10 9 -6 -4 -8 -12 -4 -18 3 -7 -1 -4 -9 6 -10 12 -17
14 -22 8 -4 -8 -12 -8 -24 -1 -10 5 -21 6 -25 2 -4 -3 -4 1 0 11 7 18 6 18
-14 10z m-672 -204 c0 -5 -4 -9 -8 -9 -5 0 -9 7 -9 15 0 8 4 12 9 9 4 -3 8 -9
8 -15z"/>
<path d="M2274 5370 c0 -13 4 -16 10 -10 7 7 7 13 0 20 -6 6 -10 3 -10 -10z"/>
<path d="M2309 5373 c-13 -16 -12 -17 4 -4 9 7 17 15 17 17 0 8 -8 3 -21 -13z"/>
<path d="M2385 5370 c-3 -6 1 -7 9 -4 18 7 21 14 7 14 -6 0 -13 -4 -16 -10z"/>
<path d="M2358 5333 c7 -3 16 -2 19 1 4 3 -2 6 -13 5 -11 0 -14 -3 -6 -6z"/>
<path d="M3915 5068 c3 -12 12 -29 22 -37 15 -15 16 -15 5 0 -6 9 -9 19 -5 22
3 4 1 7 -6 7 -7 0 -10 4 -6 9 3 5 1 12 -4 16 -6 3 -8 -4 -6 -17z"/>
</g>
</svg>
